# xmcd
#
# Track frame offsets:
#	150
#	11341
#	23061
#	33769
#	56402
#	64554
#	81213
#	101749
#	119107
#	134714
#	148305
#	156285
#	171624
#	187086
#
# Disc length: 2731 seconds
#
# Revision: 0
# Processed by: cddbd v1.5.2PL0 Copyright (c) Steve Scherf et al.
# Submitted via: audiograbber 1.83.01
#
DISCID=cb0aa90e
DTITLE=The Royal Philharmonic Orchestra - The Greatest Hits Of Simon and Garfunke
DTITLE=l [SBM]
DYEAR=2000
DGENRE=Symphonic Rock
TTITLE0=Mother And Child
TTITLE1=Homeward Bound
TTITLE2=Hazy Shade Of Winter
TTITLE3=The Boxer
TTITLE4=59th Street Bridge Song (Feelin' Groovy)
TTITLE5=Sound Of Silence
TTITLE6=Bridge Over Troubled Water
TTITLE7=Mrs. Robinson
TTITLE8=America
TTITLE9=So Long Frank Lloyd Wright
TTITLE10=April Come She Will
TTITLE11=Scarborough Fair
TTITLE12=I Am A Rock
TTITLE13=Bright Eyes
EXTD=
EXTT0=
EXTT1=
EXTT2=
EXTT3=
EXTT4=
EXTT5=
EXTT6=
EXTT7=
EXTT8=
EXTT9=
EXTT10=
EXTT11=
EXTT12=
EXTT13=
PLAYORDER=
